<svg width="8" height="8" viewBox="0 0 8 8" fill="none" xmlns="http://www.w3.org/2000/svg">
<path fill-rule="evenodd" clip-rule="evenodd" d="M4 0.5C4.0991 0.5 4.78336 0.49833 5.39414 0.709757C6.39284 1.05547 7.07923 1.83141 7.34897 2.79296C7.42031 3.04726 7.45661 3.34004 7.46257 3.3881C7.487 3.58516 7.5 3.79036 7.5 4C7.5 4.09898 7.50169 4.7833 7.29025 5.39414C6.94451 6.39293 6.16849 7.07925 5.20705 7.34897C4.95274 7.42031 4.66004 7.4566 4.6119 7.46257C4.41475 7.48701 4.20953 7.5 4 7.5C3.9009 7.5 3.21664 7.50167 2.60586 7.29024C1.60716 6.94454 0.920772 6.16859 0.651027 5.20704C0.579691 4.95274 0.543393 4.65996 0.537428 4.6119C0.513003 4.41484 0.5 4.20964 0.5 4C0.5 3.90103 0.498307 3.2167 0.709756 2.60586C1.05549 1.60708 1.83151 0.92075 2.79295 0.651029C3.04726 0.579692 3.33996 0.5434 3.3881 0.53743C3.58525 0.512989 3.79047 0.5 4 0.5Z" stroke="#3F3F3F" stroke-miterlimit="1.5" stroke-linecap="round" stroke-linejoin="round"/>
</svg>
