<svg width="16" height="16" viewBox="0 0 16 16" fill="none" xmlns="http://www.w3.org/2000/svg">
<path d="M8.00005 13.5984C8.21223 13.5984 8.41571 13.5142 8.56574 13.3641C8.71577 13.2141 8.80005 13.0106 8.80005 12.7984V7.59684C8.79997 7.5279 8.81771 7.46011 8.85154 7.40004C8.88537 7.33998 8.93416 7.28967 8.99316 7.25402C9.05216 7.21836 9.11938 7.19855 9.18828 7.19652C9.25719 7.1945 9.32546 7.21031 9.38645 7.24244L11.0217 8.10084C11.4393 8.32036 11.9204 8.3871 12.382 8.28952C12.8436 8.19195 13.2566 7.93619 13.5497 7.56644C10.0745 6.04644 8.62085 4.59844 7.94005 3.34484C7.59765 2.71524 7.01205 2.32884 6.42805 2.40964L4.13605 2.72804C3.89964 2.76081 3.67837 2.86334 3.50052 3.02251C3.32267 3.18169 3.19634 3.39029 3.13766 3.62164L2.47845 6.22404C2.39608 6.54919 2.38278 6.88799 2.4394 7.2186C2.49602 7.54921 2.62132 7.86428 2.8072 8.14348C2.99309 8.42268 3.23543 8.65982 3.51861 8.8396C3.80178 9.01938 4.1195 9.1378 4.45125 9.18724L6.85925 9.54564C6.9541 9.55983 7.04068 9.60762 7.10324 9.68031C7.16579 9.753 7.20015 9.84574 7.20005 9.94164V12.7984C7.20005 13.0106 7.28434 13.2141 7.43437 13.3641C7.5844 13.5142 7.78788 13.5984 8.00005 13.5984ZM9.60005 12.7984C9.60005 13.2228 9.43148 13.6298 9.13143 13.9298C8.83137 14.2299 8.4244 14.3984 8.00005 14.3984C7.57571 14.3984 7.16874 14.2299 6.86868 13.9298C6.56863 13.6298 6.40005 13.2228 6.40005 12.7984V10.2864L4.33365 9.97844C3.89137 9.91252 3.46781 9.75463 3.09028 9.51496C2.71276 9.27529 2.38967 8.95916 2.14183 8.58695C1.89399 8.21474 1.72691 7.79471 1.65137 7.35397C1.57583 6.91322 1.59351 6.46153 1.70325 6.02804L2.36165 3.42564C2.45927 3.03986 2.66976 2.69197 2.96618 2.42647C3.2626 2.16097 3.63149 1.98993 4.02565 1.93524L6.31845 1.61764C7.34965 1.47444 8.20645 2.16004 8.64245 2.96244C9.21205 4.01124 10.5089 5.37844 13.9737 6.87764C14.0703 6.91915 14.1564 6.98166 14.2258 7.06063C14.2952 7.13959 14.3462 7.23303 14.375 7.33415C14.4038 7.43527 14.4097 7.54154 14.3923 7.64524C14.3749 7.74893 14.3347 7.84745 14.2745 7.93364C13.8798 8.49505 13.2941 8.89352 12.627 9.05459C11.96 9.21566 11.257 9.1283 10.6497 8.80884L9.60005 8.25844V12.7984Z" fill="#3F3F3F"/>
</svg>
