<svg width="156" height="24" viewBox="0 0 156 24" fill="none" xmlns="http://www.w3.org/2000/svg">
<g clip-path="url(#clip0_661_12316)">
<path d="M3.28596 0.132414H3.81703C7.03661 6.48827 11.1524 14.2345 13.1438 17.6441C13.8077 16.5186 14.1728 15.8565 15.5336 13.3738C17.5251 9.7324 19.9813 5.26344 22.9022 0.132414H23.3336L23.4 0.695171C23.5328 1.78758 23.6324 2.84689 23.7319 3.93931L24.1966 8.04414C24.8936 14.8303 25.6571 20.9214 25.989 22.7752C25.0928 22.6759 24.7609 22.6427 24.3958 22.6427C24.0307 22.6427 23.6988 22.6759 22.8358 22.7752C22.8026 19.9945 22.2383 13.7048 21.3422 6.68689L21.2758 6.02482C18.3217 10.9903 14.04 19.1338 12.646 22.4441H12.3804C8.6298 14.8303 8.56342 14.6979 4.24852 6.85241L3.94979 6.32275C3.12001 12.4138 2.29022 20.6896 2.32341 22.7752C1.5932 22.6759 1.39405 22.6427 1.12851 22.6427C0.82979 22.6427 0.597448 22.6759 0 22.7752C0.630639 19.531 1.36085 14.731 2.25703 7.91172C2.68852 4.53517 2.98724 2.51586 3.08681 1.82069C3.1532 1.32413 3.21958 0.728274 3.28596 0.132414ZM33.4825 10.0965L31.6901 7.15034C29.3335 3.21104 27.9727 0.993099 27.6076 0.430345C28.5369 0.529654 29.0016 0.562758 29.599 0.562758C30.1633 0.562758 30.5284 0.529654 31.1922 0.430345C32.3207 2.81379 36.3701 9.99723 37.4322 11.5531C38.8595 9.33516 42.8425 2.18482 43.6059 0.430345C44.0374 0.529654 44.2697 0.562758 44.7012 0.562758C45.1327 0.562758 45.4978 0.529654 46.1616 0.430345C43.3071 4.50206 39.1914 11.1227 38.2952 13.1752C38.262 13.6717 38.262 14.1683 38.262 14.3007V16.1214L38.3284 19.3986C38.3284 21.1862 38.3948 21.9476 38.5276 22.7752C37.2995 22.6427 37.1335 22.6427 36.8348 22.6427C36.4365 22.6427 36.1378 22.6759 35.2748 22.7752C35.4739 21.3848 35.5735 19.1338 35.5735 14.6317V13.5724L35.1752 12.9434L33.4825 10.0965ZM58.6821 0.132414H59.2132C62.4328 6.48827 66.5485 14.2345 68.54 17.6441C69.2038 16.5186 69.5689 15.8565 70.9298 13.3738C72.9213 9.7324 75.3775 5.26344 78.2983 0.132414H78.7298L78.7962 0.695171C78.929 1.78758 79.0285 2.84689 79.1281 3.93931L79.5928 8.04414C80.2898 14.8303 81.0532 20.9214 81.3851 22.7752C80.489 22.6759 80.157 22.6427 79.7919 22.6427C79.4268 22.6427 79.0949 22.6759 78.2319 22.7752C78.1987 19.9945 77.6345 13.7048 76.7383 6.68689L76.6719 6.02482C73.7179 10.9903 69.4362 19.1338 68.0421 22.4441H67.7766C64.026 14.8303 63.9596 14.6979 59.6447 6.85241L59.346 6.32275C58.5162 12.4138 57.6864 20.6896 57.7196 22.7752C56.9894 22.6759 56.7902 22.6427 56.5247 22.6427C56.226 22.6427 55.9936 22.6759 55.3962 22.7752C56.0268 19.531 56.757 14.731 57.6532 7.91172C58.0847 4.53517 58.3834 2.51586 58.483 1.82069C58.5494 1.32413 58.6157 0.728274 58.6821 0.132414ZM97.427 22.7752L96.9291 22.7421C93.0789 22.6427 93.0789 22.6427 92.3487 22.6427C90.4236 22.6427 86.4074 22.709 85.5113 22.7752C85.7436 20.5241 85.8764 15.3269 85.8764 9.83171C85.8764 5.59448 85.7768 2.25103 85.644 0.430345C86.7061 0.529654 86.7393 0.529654 91.5853 0.562758L94.2738 0.529654C96.0993 0.529654 96.6304 0.496552 97.2611 0.430345C97.1947 0.893797 97.1615 1.12551 97.1615 1.39035C97.1615 1.62206 97.1947 1.8538 97.2611 2.35034C95.4355 2.15173 92.2159 2.01931 89.8593 2.01931C89.4942 2.01931 89.1955 2.01931 88.764 2.05241C88.7308 2.28414 88.6976 3.57517 88.5981 5.92552C88.4985 9.10344 88.4985 9.10344 88.4985 9.56688C88.4985 9.63309 88.4985 9.93102 88.5317 10.229C88.9964 10.2621 89.1955 10.2621 89.7266 10.2621C92.2159 10.2621 95.2364 10.1296 96.4976 9.96413C96.3981 10.4607 96.3649 10.7255 96.3649 11.0234C96.3649 11.3545 96.3981 11.5531 96.4976 11.9172C95.1036 11.7848 92.581 11.6855 89.6602 11.6855C89.2287 11.6855 88.9632 11.6855 88.4985 11.7186V12.2814L88.5317 13.9365V16.3862C88.5317 17.0483 88.5317 17.8758 88.5649 18.8027C88.5981 19.829 88.6313 20.491 88.6313 20.6565V21.1862C89.0959 21.2193 89.3947 21.2193 89.793 21.2193C92.5147 21.2193 95.9666 21.0207 97.427 20.789C97.3606 21.2193 97.3274 21.451 97.3274 21.7821C97.3274 22.1462 97.3606 22.3448 97.427 22.7752ZM104.839 0.132414H105.37C108.589 6.48827 112.705 14.2345 114.697 17.6441C115.36 16.5186 115.726 15.8565 117.086 13.3738C119.078 9.7324 121.534 5.26344 124.455 0.132414H124.886L124.953 0.695171C125.086 1.78758 125.185 2.84689 125.285 3.93931L125.749 8.04414C126.446 14.8303 127.21 20.9214 127.542 22.7752C126.646 22.6759 126.314 22.6427 125.948 22.6427C125.583 22.6427 125.251 22.6759 124.389 22.7752C124.355 19.9945 123.791 13.7048 122.895 6.68689L122.828 6.02482C119.874 10.9903 115.593 19.1338 114.199 22.4441H113.933C110.183 14.8303 110.116 14.6979 105.801 6.85241L105.503 6.32275C104.673 12.4138 103.843 20.6896 103.876 22.7752C103.146 22.6759 102.947 22.6427 102.681 22.6427C102.383 22.6427 102.15 22.6759 101.553 22.7752C102.183 19.531 102.914 14.731 103.81 7.91172C104.241 4.53517 104.54 2.51586 104.64 1.82069C104.706 1.32413 104.772 0.728274 104.839 0.132414ZM142.92 0C150.654 0 155.267 4.40276 155.267 11.7848C155.267 18.7696 150.488 23.2055 142.953 23.2055C135.352 23.2055 130.672 18.7696 130.672 11.5862C130.672 4.43587 135.386 0 142.92 0ZM142.953 1.05931C139.933 1.05931 137.377 2.31724 135.784 4.60138C134.556 6.32275 133.958 8.67309 133.958 11.5862C133.958 14.5324 134.556 16.8496 135.784 18.6041C137.311 20.8552 139.933 22.1462 142.953 22.1462C148.563 22.1462 151.981 18.1738 151.981 11.7517C151.981 8.67309 151.417 6.42207 150.156 4.60138C148.629 2.35034 145.974 1.05931 142.953 1.05931Z" fill="#333333"/>
</g>
<defs>
<clipPath id="clip0_661_12316">
<rect width="156" height="24" fill="white"/>
</clipPath>
</defs>
</svg>
