<svg width="14" height="14" viewBox="0 0 14 14" fill="none" xmlns="http://www.w3.org/2000/svg">
<path d="M7.63623 12.728H6.3635V12.0916H5.72714V11.4553H5.09078V10.8189H4.45441V10.1825H3.81805V9.54616H3.18168V8.9098H2.54532V8.27344H1.90896V7.63707H1.27259V6.36435H0.63623V3.18253H1.27259V2.54616H1.90896V1.9098H2.54532V1.27344H5.72714V1.9098H6.3635V2.54616H7.63623V1.9098H8.27259V1.27344H11.4544V1.9098H12.0908V2.54616H12.7271V3.18253H13.3635V6.36435H12.7271V7.63707H12.0908V8.27344H11.4544V8.9098H10.818V9.54616H10.1817V10.1825H9.54532V10.8189H8.90896V11.4553H8.27259V12.0916H7.63623V12.728ZM3.18168 7.00071V7.63707H3.81805V8.27344H4.45441V8.9098H5.09078V9.54616H5.72714V10.1825H6.3635V10.8189H7.63623V10.1825H8.27259V9.54616H8.90896V8.9098H9.54532V8.27344H10.1817V7.63707H10.818V7.00071H11.4544V5.72798H12.0908V3.81889H11.4544V3.18253H10.818V2.54616H8.90896V3.18253H8.27259V3.81889H7.63623V4.45526H6.3635V3.81889H5.72714V3.18253H5.09078V2.54616H3.18168V3.18253H2.54532V3.81889H1.90896V5.72798H2.54532V7.00071H3.18168Z" fill="#8383A9"/>
</svg>
