<svg width="14" height="14" viewBox="0 0 14 14" fill="none" xmlns="http://www.w3.org/2000/svg">
<g clip-path="url(#clip0_661_4081)">
<path d="M13.4167 3.5V6.41667H12.8334V7H12.25V7.58333H11.6667V8.16667H11.0834V8.75H10.5V9.33333H9.91671V9.91667H9.33338V10.5H8.75004V11.0833H8.16671V11.6667H7.58338V12.25H6.41671V11.6667H5.83337V11.0833H5.25004V10.5H4.66671V9.91667H4.08337V9.33333H3.50004V8.75H2.91671V8.16667H2.33337V7.58333H1.75004V7H1.16671V6.41667H0.583374V3.5H1.16671V2.91667H1.75004V2.33333H2.33337V1.75H5.83337V2.33333H6.41671V2.91667H7.58338V2.33333H8.16671V1.75H11.6667V2.33333H12.25V2.91667H12.8334V3.5H13.4167Z" fill="#8383A9"/>
</g>
<defs>
<clipPath id="clip0_661_4081">
<rect width="14" height="14" fill="white"/>
</clipPath>
</defs>
</svg>
